<svg width="420" height="352" viewBox="0 0 420 352" fill="none" xmlns="http://www.w3.org/2000/svg">
<path d="M384.371 88.7341L367.813 78.3692L351.254 68.0042L307.519 40.7014L287.421 28.1876L286.536 27.5556L265.554 14.4098C250.133 4.80327 229.782 0 209.558 0C189.207 0 168.983 4.80327 153.562 14.4098L94.1526 51.572L34.7437 88.7341C19.3227 98.3407 11.6122 111.107 11.6122 123.747C11.6122 136.388 19.3227 149.154 34.7437 158.761L55.7264 171.907L56.6113 172.539L76.7092 185.052L120.444 212.355L137.003 222.72L153.562 233.085C168.983 242.692 189.333 247.495 209.558 247.495C229.908 247.495 250.133 242.692 265.554 233.085L324.963 195.923L332.799 190.867L338.614 194.533L360.608 208.184C369.077 213.493 373.374 220.445 373.374 227.523C373.374 234.476 369.077 241.554 360.608 246.863L301.199 284.025L241.79 321.187C233.321 326.496 222.071 329.151 210.822 329.151C199.572 329.151 188.322 326.496 179.853 321.187L157.859 307.536L148.126 301.469L84.6725 261.778L77.4676 257.354L60.9089 246.989C60.1505 246.484 59.2657 245.978 58.5073 245.346L32.7213 228.787L40.5582 223.479L45.3615 220.319L19.8283 204.898L14.0138 208.69C-16.8283 234.602 9.08413 246.105 35.6285 262.537L52.1872 272.902L68.7458 283.267L112.481 310.57L132.579 323.083L133.464 323.715L154.446 336.861C169.867 346.468 190.218 351.271 210.442 351.271C230.793 351.271 251.017 346.468 266.438 336.861L325.847 299.699L385.256 262.537C400.677 252.93 408.388 240.29 408.388 227.523C408.388 214.883 400.677 202.117 385.256 192.51L364.274 179.364L363.389 178.732L343.291 166.219L299.556 138.916L282.997 128.551L266.438 118.186C251.017 108.579 230.667 103.776 210.442 103.776C190.092 103.776 169.867 108.579 154.446 118.186L95.0374 155.348L87.2005 160.404L81.386 156.738L59.3921 143.087C50.9232 137.778 46.6255 130.826 46.6255 123.747C46.6255 116.795 50.9232 109.717 59.3921 104.408L118.801 67.2458L178.21 30.0837C186.679 24.7748 197.929 22.1203 209.178 22.1203C220.428 22.1203 231.678 24.7748 240.147 30.0837L262.141 43.7351L271.874 49.8024L335.328 89.4926L342.532 93.9166L359.091 104.282C359.849 104.787 360.734 105.293 361.493 105.925L387.279 122.483L379.442 127.792L374.639 130.952L400.172 146.373L405.986 142.581C436.828 116.669 410.916 105.166 384.371 88.7341ZM307.645 175.067L299.809 180.249L240.4 217.411C231.931 222.72 220.681 225.375 209.431 225.375C198.181 225.375 186.932 222.72 178.463 217.411L161.904 207.046L154.699 202.622L112.355 176.204L120.191 171.022L179.6 133.86C188.069 128.551 199.319 125.896 210.569 125.896C221.819 125.896 233.068 128.551 241.537 133.86L258.096 144.225L265.301 148.649L307.645 175.067Z" fill="white"/>
</svg>
