<svg xmlns="http://www.w3.org/2000/svg" xmlns:xlink="http://www.w3.org/1999/xlink" fill="none" version="1.1" width="256" height="256" viewBox="0 0 256 256"><defs><clipPath id="master_svg0_1962_19740"><rect x="0" y="0" width="256" height="256" rx="0"/></clipPath></defs><g style="mix-blend-mode:passthrough" clip-path="url(#master_svg0_1962_19740)"><rect x="0" y="0" width="256" height="256" rx="0" fill="#0C57E9" fill-opacity="1"/><g style="mix-blend-mode:passthrough"><path d="M181.36032763671875,92.44741220703125C181.36032763671875,92.44741220703125,174.25332763671875,88.10181220703126,174.25332763671875,88.10181220703126C174.25332763671875,88.10181220703126,175.59032763671877,87.21131220703126,175.59032763671877,87.21131220703126C175.59032763671877,87.21131220703126,177.77232763671876,85.71531220703125,177.77232763671876,85.71531220703125C177.77232763671876,85.71531220703125,170.59432763671873,81.04921220703125,170.59432763671873,81.04921220703125C170.38332763671875,80.87111220703125,170.13732763671874,80.72861220703125,169.92602763671874,80.58611220703125C169.92602763671874,80.58611220703125,165.31692763671873,77.66531220703125,165.31692763671873,77.66531220703125C165.31692763671873,77.66531220703125,163.31152763671875,76.41861220703125,163.31152763671875,76.41861220703125C163.31152763671875,76.41861220703125,145.64912763671873,65.23411220703125,145.64912763671873,65.23411220703125C145.64912763671873,65.23411220703125,142.94002763671875,63.52441220703125,142.94002763671875,63.52441220703125C142.94002763671875,63.52441220703125,136.81802763671874,59.67746220703125,136.81802763671874,59.67746220703125C134.46072763671873,58.18144220703125,131.32932763671874,57.43343220703125,128.19792763671876,57.43343220703125C125.06662763671875,57.43343220703125,121.93522763671875,58.18144220703125,119.57792763671875,59.67746220703125C119.57792763671875,59.67746220703125,103.04152763671874,70.14961220703125,103.04152763671874,70.14961220703125C103.04152763671874,70.14961220703125,86.50502763671875,80.62171220703125,86.50502763671875,80.62171220703125C84.14772763671876,82.11781220703125,82.95152763671875,84.11241220703124,82.95152763671875,86.07151220703125C82.95152763671875,88.06621220703124,84.14772763671876,90.02531220703125,86.50502763671875,91.52131220703126C86.50502763671875,91.52131220703126,92.62702763671875,95.36821220703125,92.62702763671875,95.36821220703125C92.62702763671875,95.36821220703125,94.24552763671875,96.40121220703125,94.24552763671875,96.40121220703125C94.24552763671875,96.40121220703125,96.42692763671874,94.97641220703125,96.42692763671874,94.97641220703125C96.42692763671874,94.97641220703125,112.96332763671876,84.50431220703125,112.96332763671876,84.50431220703125C117.25582763671875,81.79721220703125,122.88522763671875,80.44361220703125,128.54982763671876,80.44361220703125C134.17922763671874,80.44361220703125,139.84382763671874,81.79721220703125,144.13622763671873,84.50431220703125C144.13622763671873,84.50431220703125,148.74532763671874,87.42511220703125,148.74532763671874,87.42511220703125C148.74532763671874,87.42511220703125,153.35442763671875,90.34591220703125,153.35442763671875,90.34591220703125C153.35442763671875,90.34591220703125,165.52802763671875,98.03971220703124,165.52802763671875,98.03971220703124C165.52802763671875,98.03971220703124,171.12232763671875,101.56601220703125,171.12232763671875,101.56601220703125C171.12232763671875,101.56601220703125,171.36832763671873,101.74411220703125,171.36832763671873,101.74411220703125C171.36832763671873,101.74411220703125,177.20932763671874,105.44851220703126,177.20932763671874,105.44851220703126C181.50132763671877,108.15561220703125,183.64732763671876,111.75321220703125,183.64732763671876,115.31521220703125C183.64732763671876,118.91271220703125,181.50132763671877,122.47471220703125,177.20932763671874,125.18181220703126C177.20932763671874,125.18181220703126,160.67272763671875,135.65391220703125,160.67272763671875,135.65391220703125C160.67272763671875,135.65391220703125,144.13622763671873,146.12601220703124,144.13622763671873,146.12601220703124C139.84382763671874,148.83311220703126,134.21442763671877,150.18671220703123,128.54982763671876,150.18671220703123C122.92042763671876,150.18671220703123,117.25582763671875,148.83311220703126,112.96332763671876,146.12601220703124C112.96332763671876,146.12601220703124,107.12282763671875,142.42161220703125,107.12282763671875,142.42161220703125C107.12282763671875,142.42161220703125,106.87652763671875,142.24351220703124,106.87652763671875,142.24351220703124C106.87652763671875,142.24351220703124,101.28232763671875,138.71721220703125,101.28232763671875,138.71721220703125C101.28232763671875,138.71721220703125,89.10872763671875,131.02341220703124,89.10872763671875,131.02341220703124C89.10872763671875,131.02341220703124,84.49962763671876,128.10261220703126,84.49962763671876,128.10261220703126C84.49962763671876,128.10261220703126,79.89050763671875,125.18181220703126,79.89050763671875,125.18181220703126C72.50188763671875,120.55121220703126,65.28919763671875,117.30981220703126,73.87405763671875,110.00791220703124C73.87405763671875,110.00791220703124,75.49251763671874,108.93931220703125,75.49251763671874,108.93931220703125C75.49251763671874,108.93931220703125,82.59962763671875,113.28481220703125,82.59962763671875,113.28481220703125C82.59962763671875,113.28481220703125,81.26262763671875,114.17531220703125,81.26262763671875,114.17531220703125C81.26262763671875,114.17531220703125,79.08127763671875,115.67141220703125,79.08127763671875,115.67141220703125C79.08127763671875,115.67141220703125,86.25882763671875,120.33751220703125,86.25882763671875,120.33751220703125C86.46992763671875,120.51561220703125,86.71612763671875,120.65811220703125,86.92732763671876,120.80061220703125C86.92732763671876,120.80061220703125,91.53632763671875,123.72141220703125,91.53632763671875,123.72141220703125C91.53632763671875,123.72141220703125,93.54182763671875,124.96811220703125,93.54182763671875,124.96811220703125C93.54182763671875,124.96811220703125,111.20412763671875,136.15261220703127,111.20412763671875,136.15261220703127C111.20412763671875,136.15261220703127,113.91332763671875,137.86231220703127,113.91332763671875,137.86231220703127C113.91332763671875,137.86231220703127,120.03532763671875,141.70921220703127,120.03532763671875,141.70921220703127C122.39262763671874,143.20521220703125,125.52402763671876,143.95331220703125,128.65532763671877,143.95331220703125C131.78672763671875,143.95331220703125,134.91812763671874,143.20521220703125,137.27542763671875,141.70921220703127C137.27542763671875,141.70921220703127,153.81182763671876,131.23711220703126,153.81182763671876,131.23711220703126C153.81182763671876,131.23711220703126,170.34832763671875,120.76491220703124,170.34832763671875,120.76491220703124C172.70532763671875,119.26891220703125,173.90132763671875,117.27421220703125,173.90132763671875,115.31521220703125C173.90132763671875,113.32051220703124,172.70532763671875,111.36141220703125,170.34832763671875,109.86541220703126C170.34832763671875,109.86541220703126,164.22622763671876,106.01851220703125,164.22622763671876,106.01851220703125C164.22622763671876,106.01851220703125,162.60782763671875,104.98551220703125,162.60782763671875,104.98551220703125C162.60782763671875,104.98551220703125,160.42642763671876,106.41031220703124,160.42642763671876,106.41031220703124C160.42642763671876,106.41031220703124,143.88992763671877,116.88241220703125,143.88992763671877,116.88241220703125C139.59752763671875,119.58951220703125,133.96812763671875,120.94301220703124,128.30352763671874,120.94301220703124C122.67412763671875,120.94301220703124,117.00952763671876,119.58951220703125,112.71702763671874,116.88241220703125C112.71702763671874,116.88241220703125,108.10792763671876,113.96161220703125,108.10792763671876,113.96161220703125C108.10792763671876,113.96161220703125,103.49892763671875,111.04081220703125,103.49892763671875,111.04081220703125C103.49892763671875,111.04081220703125,91.32522763671875,103.34701220703124,91.32522763671875,103.34701220703124C91.32522763671875,103.34701220703124,85.73102763671875,99.82071220703125,85.73102763671875,99.82071220703125C85.73102763671875,99.82071220703125,85.48472763671874,99.64261220703125,85.48472763671874,99.64261220703125C85.48472763671874,99.64261220703125,79.64421763671875,95.93811220703125,79.64421763671875,95.93811220703125C75.35178763671875,93.23101220703126,73.20556763671875,89.63351220703126,73.20556763671875,86.07151220703125C73.20556763671875,82.50961220703125,75.35178763671875,78.91201220703125,79.64421763671875,76.20491220703124C79.64421763671875,76.20491220703124,96.18062763671875,65.73281220703124,96.18062763671875,65.73281220703124C96.18062763671875,65.73281220703124,112.71702763671874,55.26064220703125,112.71702763671874,55.26064220703125C117.00952763671876,52.55355220703125,122.63892763671875,51.20001220703125,128.30352763671874,51.20001220703125C133.93292763671874,51.20001220703125,139.59752763671875,52.55355220703125,143.88992763671877,55.26064220703125C143.88992763671877,55.26064220703125,149.73052763671876,58.96507220703125,149.73052763671876,58.96507220703125C149.73052763671876,58.96507220703125,149.97682763671875,59.14317220703125,149.97682763671875,59.14317220703125C149.97682763671875,59.14317220703125,155.57102763671875,62.66951220703125,155.57102763671875,62.66951220703125C155.57102763671875,62.66951220703125,167.74462763671875,70.36331220703124,167.74462763671875,70.36331220703124C167.74462763671875,70.36331220703124,172.35332763671875,73.28411220703126,172.35332763671875,73.28411220703126C172.35332763671875,73.28411220703126,176.96232763671875,76.20491220703124,176.96232763671875,76.20491220703124C184.35132763671874,80.83551220703126,191.56432763671876,84.07681220703125,182.97932763671875,91.37881220703125C182.97932763671875,91.37881220703125,181.36032763671875,92.44741220703125,181.36032763671875,92.44741220703125ZM141.81412763671875,91.84191220703124C141.81412763671875,91.84191220703124,137.20502763671874,88.92111220703126,137.20502763671874,88.92111220703126C134.84772763671873,87.42511220703125,131.71632763671874,86.67711220703126,128.58502763671873,86.67711220703126C125.45362763671875,86.67711220703126,122.32222763671875,87.42511220703125,119.96492763671876,88.92111220703126C119.96492763671876,88.92111220703126,103.42852763671874,99.39321220703124,103.42852763671874,99.39321220703124C103.42852763671874,99.39321220703124,101.24712763671874,100.85361220703125,101.24712763671874,100.85361220703125C101.24712763671874,100.85361220703125,113.03372763671875,108.29811220703125,113.03372763671875,108.29811220703125C113.03372763671875,108.29811220703125,115.03922763671875,109.54481220703124,115.03922763671875,109.54481220703124C115.03922763671875,109.54481220703124,119.64832763671875,112.46561220703126,119.64832763671875,112.46561220703126C122.00562763671874,113.96161220703125,125.13692763671875,114.70961220703126,128.26832763671877,114.70961220703126C131.39972763671875,114.70961220703126,134.53102763671876,113.96161220703125,136.88842763671875,112.46561220703126C136.88842763671875,112.46561220703126,153.42482763671876,101.99341220703124,153.42482763671876,101.99341220703124C153.42482763671876,101.99341220703124,155.60622763671876,100.53301220703125,155.60622763671876,100.53301220703125C155.60622763671876,100.53301220703125,143.81962763671874,93.08861220703125,143.81962763671874,93.08861220703125C143.81962763671874,93.08861220703125,141.81412763671875,91.84191220703124,141.81412763671875,91.84191220703124Z" fill="#FFFFFF" fill-opacity="1"/></g><g style="mix-blend-mode:passthrough"><path d="M195.30433923339845,189.8330047265625C195.49033923339843,189.1922247265625,195.92333923339845,188.4141147265625,196.63533923339844,187.4987047265625C198.32233923339842,185.7289047265625,200.24233923339844,184.8287447265625,202.40933923339844,184.8287447265625C204.26633923339844,184.8287447265625,205.96933923339844,185.5153147265625,207.51733923339845,186.8731747265625C209.18933923339844,188.4751447265625,210.00933923339844,190.3364447265625,210.00933923339844,192.4419447265625C209.94733923339842,193.4794447265625,209.82333923339843,194.1964447265625,209.66833923339843,194.6236447265625C209.15833923339844,196.2409447265625,208.18233923339844,197.5682447265625,206.74333923339844,198.6057447265625C205.35033923339844,199.5058447265625,203.98833923339845,199.9635447265625,202.64133923339844,199.9635447265625C202.64133923339844,199.9635447265625,202.16133923339845,199.9635447265625,202.16133923339845,199.9635447265625C200.48933923339843,199.9635447265625,198.89533923339843,199.3227447265625,197.37833923339844,198.0412447265625C195.67533923339843,196.4239447265625,194.82433923339843,194.5321447265625,194.82433923339843,192.3809447265625C194.82433923339843,192.3809447265625,194.82433923339843,192.3656447265625,194.82433923339843,192.3656447265625C194.82433923339843,191.5722447265625,194.97933923339843,190.7179447265625,195.30433923339845,189.8330047265625ZM185.38233923339843,204.76954472656251C185.38233923339843,204.76954472656251,185.38233923339843,200.02464472656249,185.38233923339843,200.02464472656249C185.38233923339843,200.02464472656249,160.21333923339844,200.02464472656249,160.21333923339844,200.02464472656249C160.21333923339844,200.02464472656249,160.21333923339844,204.76954472656251,160.21333923339844,204.76954472656251C160.21333923339844,204.76954472656251,185.38233923339843,204.76954472656251,185.38233923339843,204.76954472656251ZM185.38233923339843,184.8134947265625C185.38233923339843,184.8134947265625,185.38233923339843,180.0686016265625,185.38233923339843,180.0686016265625C185.38233923339843,180.0686016265625,160.21333923339844,180.0686016265625,160.21333923339844,180.0686016265625C160.21333923339844,180.0686016265625,160.21333923339844,184.8134947265625,160.21333923339844,184.8134947265625C160.21333923339844,184.8134947265625,185.38233923339843,184.8134947265625,185.38233923339843,184.8134947265625ZM45.652159233398436,181.0450417265625C43.14453923339844,182.5097047265625,41.89073473339844,184.5236147265625,41.89073473339844,187.05625472656249C41.89073473339844,187.05625472656249,41.89073473339844,187.7275547265625,41.89073473339844,187.7275547265625C41.89073473339844,188.9633647265625,42.26223323339844,190.1686447265625,42.989749233398435,191.3739447265625C44.67696923339844,193.5404447265625,46.76664923339844,194.6236447265625,49.28974923339844,194.6236447265625C49.28974923339844,194.6236447265625,58.90223923339843,194.6236447265625,58.90223923339843,194.6236447265625C59.45953923339844,194.6236447265625,59.89293923339844,194.7152447265625,60.24893923339844,194.8982447265625C61.22413923339843,195.4170447265625,61.71943923339843,196.1798447265625,61.71943923339843,197.1563447265625C61.71943923339843,197.1563447265625,61.68853923339844,197.6140447265625,61.68853923339844,197.6140447265625C61.28603923339844,199.0023447265625,60.372739233398434,199.7042447265625,58.93323923339844,199.7042447265625C58.93323923339844,199.7042447265625,41.81333923339844,199.7042447265625,41.81333923339844,199.7042447265625C41.81333923339844,199.7042447265625,41.82881833339844,204.7847447265625,41.82881833339844,204.7847447265625C41.82881833339844,204.7847447265625,57.75683923339844,204.7847447265625,57.75683923339844,204.7847447265625C59.32023923339844,204.7847447265625,60.45013923339844,204.7084447265625,61.115739233398436,204.5559447265625C62.01353923339843,204.3117447265625,62.818439233398436,203.9761447265625,63.51503923339844,203.5489447265625C65.85233923339844,201.8554447265625,67.02883923339843,199.7805447265625,67.02883923339843,197.3088447265625C67.02883923339843,196.2714447265625,66.82753923339844,195.2186447265625,66.40963923339844,194.1354447265625C65.66663923339844,192.3809447265625,64.31993923339843,191.0688447265625,62.36963923339844,190.2144447265625C61.58013923339844,189.7719847265625,60.078639233398434,189.5431247265625,57.88063923339844,189.5431247265625C57.88063923339844,189.5431247265625,49.305229233398435,189.5431247265625,49.305229233398435,189.5431247265625C49.01111923339844,189.5431247265625,48.732499233398435,189.4973547265625,48.46934923339844,189.3905547265625C47.602529233398435,188.8718247265625,47.16910923339844,188.2310347265625,47.16910923339844,187.4681947265625C47.16910923339844,187.4681947265625,47.16910923339844,187.1020247265625,47.16910923339844,187.1020247265625C47.46320923339844,185.8051947265625,48.283599233398434,185.1644047265625,49.61480923339844,185.1644047265625C49.61480923339844,185.1644047265625,66.67273923339843,185.1644047265625,66.67273923339843,185.1644047265625C66.67273923339843,185.1644047265625,66.67273923339843,180.0838585265625,66.67273923339843,180.0838585265625C66.67273923339843,180.0838585265625,49.785079233398434,180.0838585265625,49.785079233398434,180.0838585265625C49.785079233398434,180.0838585265625,49.785079233398434,180.1143722265625,49.785079233398434,180.1143722265625C48.06689923339844,180.1143722265625,46.68925923339844,180.4347667265625,45.652159233398436,181.0450417265625ZM76.44013923339844,204.7847447265625C76.44013923339844,204.7847447265625,76.44013923339844,194.8220447265625,76.44013923339844,194.8220447265625C76.44013923339844,194.8220447265625,88.57573923339844,194.8220447265625,88.57573923339844,194.8220447265625C88.57573923339844,194.8220447265625,88.57573923339844,190.0160947265625,88.57573923339844,190.0160947265625C88.57573923339844,190.0160947265625,76.44013923339844,190.0160947265625,76.44013923339844,190.0160947265625C76.44013923339844,190.0160947265625,76.44013923339844,180.0533447265625,76.44013923339844,180.0533447265625C76.44013923339844,180.0533447265625,71.42483923339844,180.0533447265625,71.42483923339844,180.0533447265625C71.42483923339844,180.0533447265625,71.42483923339844,204.7847447265625,71.42483923339844,204.7847447265625C71.42483923339844,204.7847447265625,76.44013923339844,204.7847447265625,76.44013923339844,204.7847447265625ZM96.65583923339844,204.76954472656251C96.65583923339844,204.76954472656251,96.65583923339844,180.0838585265625,96.65583923339844,180.0838585265625C96.65583923339844,180.0838585265625,91.64053923339844,180.0838585265625,91.64053923339844,180.0838585265625C91.64053923339844,180.0838585265625,91.64053923339844,204.76954472656251,91.64053923339844,204.76954472656251C91.64053923339844,204.76954472656251,96.65583923339844,204.76954472656251,96.65583923339844,204.76954472656251ZM106.51603923339843,189.8482647265625C106.70173923339844,189.2074747265625,107.13513923339843,188.42937472656251,107.84723923339844,187.5139647265625C109.53443923339844,185.7441647265625,111.45383923339844,184.8440047265625,113.62093923339843,184.8440047265625C115.47843923339843,184.8440047265625,117.18113923339844,185.5305647265625,118.72903923339844,186.8884247265625C120.40073923339844,188.4904047265625,121.22113923339843,190.35174472656252,121.22113923339843,192.4571447265625C121.15923923339844,193.4946447265625,121.03543923339844,194.2117447265625,120.88063923339844,194.6389447265625C120.36983923339844,196.2561447265625,119.39463923339844,197.5835447265625,117.95503923339844,198.6209447265625C116.56193923339843,199.5211447265625,115.19973923339843,199.9788447265625,113.85313923339844,199.9788447265625C113.85313923339844,199.9788447265625,113.37323923339844,199.9788447265625,113.37323923339844,199.9788447265625C111.70153923339844,199.9788447265625,110.10713923339844,199.3380447265625,108.59023923339844,198.0564447265625C106.88753923339844,196.4392447265625,106.03613923339844,194.5473447265625,106.03613923339844,192.3961447265625C106.03613923339844,192.3961447265625,106.03613923339844,192.3809447265625,106.03613923339844,192.3809447265625C106.03613923339844,191.5875447265625,106.19093923339844,190.7331447265625,106.51603923339843,189.8482647265625ZM111.46933923339844,180.2974547265625C109.73563923339844,180.4805377265625,107.81623923339843,181.3196647265625,105.69563923339844,182.7995847265625C102.58433923339844,185.4542847265625,101.02093923339844,188.6429747265625,101.02093923339844,192.3656447265625C101.02093923339844,192.3656447265625,101.02093923339844,192.5334447265625,101.02093923339844,192.5334447265625C101.02093923339844,193.8455447265625,101.25313923339843,195.1881447265625,101.70193923339843,196.5612447265625C102.08893923339843,197.6597447265625,102.75453923339845,198.8650447265625,103.69883923339845,200.1771447265625C106.42313923339844,203.2590447265625,109.70463923339844,204.8000447265625,113.52803923339843,204.8000447265625C113.52803923339843,204.8000447265625,113.71373923339844,204.8000447265625,113.71373923339844,204.8000447265625C116.50003923339844,204.8000447265625,119.06953923339844,203.9303447265625,121.42233923339843,202.2216447265625C124.64203923339844,199.5669447265625,126.25183923339844,196.3477447265625,126.25183923339844,192.5487447265625C126.25183923339844,192.5487447265625,126.25183923339844,192.3656447265625,126.25183923339844,192.3656447265625C126.25183923339844,189.6194147265625,125.36953923339844,187.0867647265625,123.60493923339844,184.7524647265625C120.88063923339844,181.6400647265625,117.59903923339844,180.0838585265625,113.74473923339843,180.0838585265625C113.74473923339843,180.0838585265625,113.55903923339844,180.0838585265625,113.55903923339844,180.0838585265625C113.55903923339844,180.0838585265625,113.55903923339844,180.1296291265625,113.55903923339844,180.1296291265625C112.69213923339844,180.1296291265625,112.01103923339844,180.1906567265625,111.46933923339844,180.2974547265625ZM130.64793923339843,184.8745247265625C130.64793923339843,184.8745247265625,145.18233923339844,184.8745247265625,145.18233923339844,184.8745247265625C146.60733923339842,184.8745247265625,147.90733923339843,185.3779947265625,149.08333923339842,186.4002047265625C150.21333923339844,187.6207547265625,150.77033923339843,188.8870847265625,150.77033923339843,190.1686447265625C150.77033923339843,190.1686447265625,150.77033923339843,190.68734472656251,150.77033923339843,190.68734472656251C150.77033923339843,190.9620447265625,150.72433923339844,191.3129447265625,150.63133923339842,191.7401447265625C150.18233923339844,193.2505447265625,149.40833923339844,194.3185447265625,148.34033923339842,195.0050447265625C147.50433923339844,195.6764447265625,146.18933923339844,195.9967447265625,144.39333923339842,195.9967447265625C144.39333923339842,195.9967447265625,130.61693923339845,195.9967447265625,130.61693923339845,195.9967447265625C130.61693923339845,195.9967447265625,130.61693923339845,204.76954472656251,130.61693923339845,204.76954472656251C130.61693923339845,204.76954472656251,135.67863923339843,204.76954472656251,135.67863923339843,204.76954472656251C135.67863923339843,204.76954472656251,135.67863923339843,200.8942447265625,135.67863923339843,200.8942447265625C135.67863923339843,200.8942447265625,144.79533923339844,200.7874447265625,144.79533923339844,200.7874447265625C145.70933923339845,200.7874447265625,146.51433923339843,200.7416447265625,147.19533923339844,200.6348447265625C149.25333923339844,200.19244472656248,150.98733923339844,199.3685447265625,152.39633923339844,198.1327447265625C154.68733923339843,195.9662447265625,155.83233923339844,193.4183447265625,155.83233923339844,190.51954472656251C155.83233923339844,189.1311947265625,155.60033923339844,187.8190947265625,155.12033923339845,186.6138047265625C153.15433923339845,182.2655947265625,149.65633923339846,180.0838585265625,144.59433923339844,180.0838585265625C144.59433923339844,180.0838585265625,130.64793923339843,180.0838585265625,130.64793923339843,180.0838585265625C130.64793923339843,180.0838585265625,130.64793923339843,180.0533447265625,130.64793923339843,180.0533447265625C130.64793923339843,180.0533447265625,130.64793923339843,184.8745247265625,130.64793923339843,184.8745247265625ZM185.38233923339843,194.7915447265625C185.38233923339843,194.7915447265625,185.38233923339843,190.0466047265625,185.38233923339843,190.0466047265625C185.38233923339843,190.0466047265625,160.21333923339844,190.0466047265625,160.21333923339844,190.0466047265625C160.21333923339844,190.0466047265625,160.21333923339844,194.7915447265625,160.21333923339844,194.7915447265625C160.21333923339844,194.7915447265625,185.38233923339843,194.7915447265625,185.38233923339843,194.7915447265625ZM200.25733923339843,180.2974547265625C198.52333923339845,180.4805377265625,196.60433923339843,181.3196647265625,194.48333923339842,182.7995847265625C191.37233923339843,185.4542847265625,189.80933923339845,188.6429747265625,189.80933923339845,192.3656447265625C189.80933923339845,192.3656447265625,189.80933923339845,192.5334447265625,189.80933923339845,192.5334447265625C189.80933923339845,193.8455447265625,190.04133923339845,195.1881447265625,190.49033923339843,196.5612447265625C190.87733923339843,197.6597447265625,191.54233923339845,198.8650447265625,192.48733923339844,200.1771447265625C195.21133923339843,203.2590447265625,198.49233923339844,204.8000447265625,202.31633923339842,204.8000447265625C202.31633923339842,204.8000447265625,202.50233923339843,204.8000447265625,202.50233923339843,204.8000447265625C205.28833923339843,204.8000447265625,207.85733923339845,203.9303447265625,210.21033923339843,202.2216447265625C213.43033923339843,199.5669447265625,215.04033923339844,196.3477447265625,215.04033923339844,192.5487447265625C215.04033923339844,192.5487447265625,215.04033923339844,192.3656447265625,215.04033923339844,192.3656447265625C215.04033923339844,189.6194147265625,214.15733923339843,187.0867647265625,212.39333923339845,184.7524647265625C209.66833923339843,181.6400647265625,206.38733923339845,180.0838585265625,202.53333923339844,180.0838585265625C202.53333923339844,180.0838585265625,202.34733923339843,180.0838585265625,202.34733923339843,180.0838585265625C202.34733923339843,180.0838585265625,202.34733923339843,180.1296291265625,202.34733923339843,180.1296291265625C201.48033923339844,180.1296291265625,200.79933923339843,180.1906567265625,200.25733923339843,180.2974547265625Z" fill="#FFFFFF" fill-opacity="1"/></g></g></svg>